<svg width="384" height="56" viewBox="0 0 384 56" fill="none" xmlns="http://www.w3.org/2000/svg">
<path d="M56.0986 56H46.0693V42.4219H10.8125V56H0.783203V28.3423C0.783203 24.3049 1.47754 20.5889 2.86621 17.1943C4.25488 13.7998 6.18359 10.881 8.65234 8.43799C11.1211 5.99495 14.0399 4.09196 17.4087 2.729C20.7775 1.36605 24.4549 0.68457 28.4409 0.68457H51.0454C51.7397 0.68457 52.3955 0.813151 53.0127 1.07031C53.6299 1.32747 54.1699 1.6875 54.6328 2.15039C55.0957 2.61328 55.4557 3.15332 55.7129 3.77051C55.9701 4.3877 56.0986 5.04346 56.0986 5.73779V56ZM10.8125 32.3926H46.0693V10.7139H28.4409C28.1323 10.7139 27.4766 10.7653 26.4736 10.8682C25.4964 10.9453 24.3521 11.1639 23.0405 11.5239C21.7547 11.884 20.3918 12.4368 18.9517 13.1826C17.5116 13.9284 16.1872 14.957 14.9785 16.2686C13.7699 17.5801 12.7669 19.2259 11.9697 21.2061C11.1982 23.1605 10.8125 25.5392 10.8125 28.3423V32.3926ZM123.063 19.2773C123.063 21.5661 122.781 23.6105 122.215 25.4106C121.649 27.2108 120.878 28.8052 119.9 30.1938C118.949 31.5568 117.843 32.7269 116.583 33.7041C115.323 34.6813 113.999 35.4914 112.61 36.1343C111.247 36.7515 109.858 37.2015 108.444 37.4844C107.055 37.7673 105.744 37.9087 104.509 37.9087L125.455 56H109.948L89.041 37.9087H81.8276V27.8794H104.509C105.769 27.7765 106.914 27.5194 107.942 27.1079C108.997 26.6707 109.897 26.0921 110.643 25.3721C111.414 24.652 112.006 23.7905 112.417 22.7876C112.828 21.759 113.034 20.5889 113.034 19.2773V12.9512C113.034 12.3854 112.957 11.9611 112.803 11.6782C112.674 11.3696 112.494 11.151 112.263 11.0225C112.057 10.8682 111.826 10.7782 111.568 10.7524C111.337 10.7267 111.118 10.7139 110.913 10.7139H77.8159V56H67.7866V5.73779C67.7866 5.04346 67.9152 4.3877 68.1724 3.77051C68.4295 3.15332 68.7767 2.61328 69.2139 2.15039C69.6768 1.6875 70.2168 1.32747 70.834 1.07031C71.4512 0.813151 72.1198 0.68457 72.8398 0.68457H110.913C113.15 0.68457 115.04 1.09603 116.583 1.91895C118.126 2.71615 119.373 3.73193 120.325 4.96631C121.302 6.17497 121.996 7.48649 122.408 8.90088C122.845 10.3153 123.063 11.6396 123.063 12.874V19.2773ZM182.661 10.7139H160.558V56H150.528V10.7139H128.387V0.68457H182.661V10.7139ZM200.173 56H190.144V0.68457H200.173V56ZM265.055 39.7217C265.055 41.7018 264.798 43.4891 264.284 45.0835C263.795 46.6522 263.139 48.0409 262.316 49.2495C261.493 50.4582 260.529 51.4868 259.423 52.3354C258.318 53.1841 257.173 53.8784 255.99 54.4185C254.807 54.9585 253.599 55.3571 252.364 55.6143C251.156 55.8714 250.011 56 248.931 56H210.241V45.9707H248.931C250.86 45.9707 252.351 45.4049 253.406 44.2734C254.486 43.1419 255.026 41.6247 255.026 39.7217C255.026 38.7959 254.884 37.9473 254.602 37.1758C254.319 36.4043 253.907 35.7357 253.367 35.1699C252.853 34.6042 252.21 34.167 251.438 33.8584C250.693 33.5498 249.857 33.3955 248.931 33.3955H225.864C224.244 33.3955 222.495 33.1126 220.618 32.5469C218.74 31.9554 216.992 31.0168 215.372 29.731C213.777 28.4451 212.44 26.7607 211.36 24.6777C210.306 22.5947 209.778 20.0488 209.778 17.04C209.778 14.0312 210.306 11.4982 211.36 9.44092C212.44 7.35791 213.777 5.6735 215.372 4.3877C216.992 3.07617 218.74 2.13753 220.618 1.57178C222.495 0.980306 224.244 0.68457 225.864 0.68457H260.002V10.7139H225.864C223.961 10.7139 222.469 11.2925 221.389 12.4497C220.335 13.6069 219.808 15.137 219.808 17.04C219.808 18.9688 220.335 20.4989 221.389 21.6304C222.469 22.7362 223.961 23.2891 225.864 23.2891H248.931H249.008C250.088 23.3148 251.233 23.4691 252.441 23.752C253.65 24.0091 254.846 24.4206 256.029 24.9863C257.237 25.5521 258.382 26.2721 259.462 27.1465C260.542 27.9951 261.493 29.0238 262.316 30.2324C263.165 31.4411 263.834 32.8298 264.322 34.3984C264.811 35.9671 265.055 37.7415 265.055 39.7217ZM322.762 10.7139H300.659V56H290.63V10.7139H268.488V0.68457H322.762V10.7139ZM383.324 39.7217C383.324 41.7018 383.067 43.4891 382.552 45.0835C382.064 46.6522 381.408 48.0409 380.585 49.2495C379.762 50.4582 378.798 51.4868 377.692 52.3354C376.586 53.1841 375.442 53.8784 374.259 54.4185C373.076 54.9585 371.867 55.3571 370.633 55.6143C369.424 55.8714 368.28 56 367.2 56H328.51V45.9707H367.2C369.128 45.9707 370.62 45.4049 371.674 44.2734C372.754 43.1419 373.294 41.6247 373.294 39.7217C373.294 38.7959 373.153 37.9473 372.87 37.1758C372.587 36.4043 372.176 35.7357 371.636 35.1699C371.121 34.6042 370.479 34.167 369.707 33.8584C368.961 33.5498 368.125 33.3955 367.2 33.3955H344.132C342.512 33.3955 340.764 33.1126 338.886 32.5469C337.009 31.9554 335.26 31.0168 333.64 29.731C332.046 28.4451 330.708 26.7607 329.628 24.6777C328.574 22.5947 328.047 20.0488 328.047 17.04C328.047 14.0312 328.574 11.4982 329.628 9.44092C330.708 7.35791 332.046 5.6735 333.64 4.3877C335.26 3.07617 337.009 2.13753 338.886 1.57178C340.764 0.980306 342.512 0.68457 344.132 0.68457H378.271V10.7139H344.132C342.229 10.7139 340.738 11.2925 339.658 12.4497C338.603 13.6069 338.076 15.137 338.076 17.04C338.076 18.9688 338.603 20.4989 339.658 21.6304C340.738 22.7362 342.229 23.2891 344.132 23.2891H367.2H367.277C368.357 23.3148 369.501 23.4691 370.71 23.752C371.919 24.0091 373.114 24.4206 374.297 24.9863C375.506 25.5521 376.65 26.2721 377.73 27.1465C378.811 27.9951 379.762 29.0238 380.585 30.2324C381.434 31.4411 382.102 32.8298 382.591 34.3984C383.079 35.9671 383.324 37.7415 383.324 39.7217Z" fill="white"/>
</svg>
