<svg width="123" height="32" viewBox="0 0 123 32" fill="none" xmlns="http://www.w3.org/2000/svg">
<path d="M32.0089 30.933H27.1297V13.1414L18.5446 30.0372C18.3336 30.4677 18.0356 30.7941 17.6507 31.0164C17.2783 31.2386 16.8748 31.3498 16.4403 31.3498C16.0181 31.3498 15.6208 31.2386 15.2484 31.0164C14.8884 30.7941 14.6028 30.4677 14.3918 30.0372L5.76936 13.1414V30.933H0.927429V3.37054C0.927429 2.74555 1.08883 2.18999 1.41162 1.70387C1.74683 1.21777 2.18137 0.891378 2.71522 0.724712C2.97594 0.655267 3.23666 0.634433 3.49738 0.662212C3.7581 0.676101 4.0064 0.738601 4.24229 0.849711C4.4906 0.946934 4.71407 1.09277 4.91271 1.28721C5.11136 1.46777 5.27896 1.68999 5.41553 1.95388L16.4403 23.3914L27.465 1.95388C27.7505 1.4261 28.1416 1.0511 28.6382 0.828878C29.1472 0.606656 29.6749 0.571934 30.2211 0.724712C30.7426 0.891378 31.1709 1.21777 31.5061 1.70387C31.8413 2.18999 32.0089 2.74555 32.0089 3.37054V30.933Z" fill="white"/>
<path d="M58.621 15.8704C58.621 16.6205 58.503 17.433 58.2671 18.3079C58.0312 19.1691 57.6463 19.9746 57.1125 20.7246C56.5911 21.4607 55.902 22.0788 55.0454 22.5788C54.2012 23.0788 53.1706 23.3287 51.954 23.3287H43.2198V18.1829H51.954C52.612 18.1829 53.121 17.9607 53.481 17.5163C53.841 17.0579 54.0211 16.4955 54.0211 15.8288C54.0211 15.1204 53.8162 14.5649 53.4065 14.1621C53.0093 13.7594 52.525 13.558 51.954 13.558H43.2198C42.5618 13.558 42.0529 13.7871 41.6928 14.2454C41.3328 14.6899 41.1528 15.2454 41.1528 15.9121V23.4747C41.1528 24.1968 41.3514 24.7594 41.7487 25.1621C42.1583 25.5649 42.6612 25.7663 43.2571 25.7663H51.954V30.9329H43.2198C42.5494 30.9329 41.8232 30.801 41.041 30.5371C40.2713 30.2732 39.5512 29.8496 38.8807 29.2662C38.2227 28.669 37.6703 27.8982 37.2234 26.9538C36.7764 25.9954 36.5529 24.8357 36.5529 23.4747V15.8704C36.5529 15.1204 36.6708 14.3149 36.9067 13.4538C37.1426 12.5788 37.5213 11.7732 38.0427 11.0371C38.5765 10.2871 39.2656 9.6621 40.1098 9.1621C40.9665 8.6621 42.0032 8.41211 43.2198 8.41211H51.954C52.6244 8.41211 53.3445 8.54405 54.1142 8.80794C54.8964 9.07183 55.6164 9.50238 56.2744 10.0996C56.9449 10.683 57.5036 11.4538 57.9505 12.4122C58.3975 13.3566 58.621 14.5093 58.621 15.8704Z" fill="white"/>
<path d="M80.1862 13.829H71.7314V30.9331H66.8336V13.829H60.5391V8.41228H66.8336V1.05811H71.7314V8.41228H80.1862V13.829Z" fill="white"/>
<path d="M102.999 23.4747C102.999 24.2246 102.881 25.0371 102.645 25.9121C102.409 26.7732 102.024 27.5788 101.49 28.3287C100.97 29.0648 100.28 29.683 99.4231 30.1829C98.5792 30.683 97.5485 30.9329 96.3319 30.9329H87.598C86.9276 30.9329 86.2012 30.801 85.4191 30.5371C84.6493 30.2732 83.9293 29.8496 83.2589 29.2662C82.6009 28.669 82.0484 27.8982 81.6014 26.9538C81.1545 25.9954 80.931 24.8357 80.931 23.4747C80.931 22.7246 81.049 21.9121 81.2849 21.0371C81.5208 20.1621 81.8994 19.3566 82.4209 18.6205C82.9547 17.8704 83.6438 17.2454 84.488 16.7455C85.3446 16.2454 86.3814 15.9954 87.598 15.9954H96.3319V21.1621H87.598C86.94 21.1621 86.4309 21.3912 86.0709 21.8496C85.7109 22.2941 85.5309 22.8496 85.5309 23.5163C85.5309 24.2246 85.7358 24.7802 86.1455 25.1829C86.5676 25.5718 87.0642 25.7663 87.6353 25.7663H96.3319C96.9898 25.7663 97.4989 25.5441 97.8594 25.0996C98.2188 24.6551 98.399 24.0996 98.399 23.4329V15.8704C98.399 15.1621 98.2007 14.5996 97.8031 14.1829C97.4188 13.7663 96.9278 13.558 96.3319 13.558H85.6985V8.41211H96.3319C97.0022 8.41211 97.723 8.54405 98.4925 8.80794C99.2743 9.07183 99.9942 9.50238 100.652 10.0996C101.323 10.683 101.882 11.4538 102.328 12.4122C102.776 13.3566 102.999 14.5093 102.999 15.8704V23.4747Z" fill="white"/>
<path d="M113.846 3.6497C113.846 4.02054 113.805 4.35179 113.723 4.64345C113.642 4.93512 113.53 5.19346 113.389 5.41846C113.251 5.63929 113.09 5.82887 112.908 5.98721C112.726 6.14554 112.534 6.27679 112.332 6.38096C112.135 6.48096 111.935 6.55387 111.73 6.59971C111.529 6.64554 111.339 6.66846 111.16 6.66846L114.194 9.59971H111.947L108.919 6.66846H107.875V5.04345H111.16C111.342 5.02679 111.508 4.98513 111.657 4.91846C111.81 4.84762 111.94 4.75387 112.048 4.6372C112.16 4.52054 112.246 4.38096 112.305 4.21846C112.365 4.05179 112.394 3.8622 112.394 3.6497V2.62471C112.394 2.53304 112.383 2.4643 112.361 2.41846C112.342 2.36846 112.316 2.33304 112.283 2.31221C112.253 2.28721 112.219 2.27263 112.182 2.26846C112.148 2.2643 112.117 2.2622 112.087 2.2622H107.293V9.59971H105.841V1.45595C105.841 1.34345 105.859 1.2372 105.896 1.1372C105.934 1.03721 105.984 0.949706 106.048 0.874707C106.115 0.799706 106.193 0.741373 106.282 0.699706C106.372 0.65804 106.468 0.637207 106.572 0.637207H112.087C112.411 0.637207 112.685 0.703874 112.908 0.837207C113.131 0.966373 113.313 1.13096 113.45 1.33096C113.592 1.52679 113.692 1.73929 113.752 1.96846C113.815 2.19763 113.846 2.41221 113.846 2.61221V3.6497Z" fill="white"/>
<path d="M122.662 9.59971H116.037C115.933 9.59971 115.835 9.57888 115.747 9.5372C115.657 9.49554 115.579 9.43929 115.511 9.36846C115.448 9.29346 115.398 9.20596 115.361 9.10596C115.323 9.00596 115.305 8.89762 115.305 8.78096V0.637207H116.758V7.97471H122.662V9.59971Z" fill="white"/>
</svg>
